# Blender 4.4.3
# www.blender.org
mtllib Untitled.mtl
o Object_4
v 0.000000 0.707107 -0.707107
v 0.000000 0.707107 -0.707107
v 0.000000 0.707107 -0.707107
v 0.000000 0.707107 -0.707107
v 0.000000 0.382684 -0.923880
v 0.000000 0.382684 -0.923880
v 0.000000 0.382684 -0.923880
v 0.000000 0.382684 -0.923880
v 0.146447 0.923880 -0.353554
v 0.146447 0.923880 -0.353554
v 0.146447 0.923880 -0.353554
v 0.146447 0.923880 -0.353554
v 0.270598 0.707107 -0.653282
v 0.270598 0.707107 -0.653282
v 0.270598 0.707107 -0.653282
v 0.270598 0.707107 -0.653282
v 0.353553 0.382684 -0.853554
v 0.353553 0.382684 -0.853554
v 0.353553 0.382684 -0.853554
v 0.353553 0.382684 -0.853554
v 0.382683 -0.000000 -0.923880
v 0.382683 -0.000000 -0.923880
v 0.382683 -0.000000 -0.923880
v 0.382683 -0.000000 -0.923880
v 0.270598 0.923880 -0.270598
v 0.270598 0.923880 -0.270598
v 0.270598 0.923880 -0.270598
v 0.270598 0.923880 -0.270598
v 0.500000 0.707107 -0.500000
v 0.500000 0.707107 -0.500000
v 0.500000 0.707107 -0.500000
v 0.500000 0.707107 -0.500000
v 0.653282 0.382684 -0.653282
v 0.653282 0.382684 -0.653282
v 0.653282 0.382684 -0.653282
v 0.653282 0.382684 -0.653282
v 0.707107 -0.000000 -0.707107
v 0.707107 -0.000000 -0.707107
v 0.707107 -0.000000 -0.707107
v 0.707107 -0.000000 -0.707107
v 0.353554 0.923880 -0.146447
v 0.353554 0.923880 -0.146447
v 0.353554 0.923880 -0.146447
v 0.353554 0.923880 -0.146447
v 0.653282 0.707107 -0.270598
v 0.653282 0.707107 -0.270598
v 0.653282 0.707107 -0.270598
v 0.653282 0.707107 -0.270598
v 0.853554 0.382684 -0.353553
v 0.853554 0.382684 -0.353553
v 0.853554 0.382684 -0.353553
v 0.853554 0.382684 -0.353553
v 0.923880 -0.000000 -0.382683
v 0.923880 -0.000000 -0.382683
v 0.923880 -0.000000 -0.382683
v 0.923880 -0.000000 -0.382683
v 0.382684 0.923880 0.000000
v 0.382684 0.923880 0.000000
v 0.382684 0.923880 0.000000
v 0.382684 0.923880 0.000000
v 0.707107 0.707107 0.000000
v 0.707107 0.707107 0.000000
v 0.707107 0.707107 0.000000
v 0.707107 0.707107 0.000000
v 0.923880 0.382684 0.000000
v 0.923880 0.382684 0.000000
v 0.923880 0.382684 0.000000
v 0.923880 0.382684 0.000000
v 1.000000 -0.000000 0.000000
v 1.000000 -0.000000 0.000000
v 1.000000 -0.000000 0.000000
v 1.000000 -0.000000 0.000000
v 0.353553 0.923880 0.146447
v 0.353553 0.923880 0.146447
v 0.353553 0.923880 0.146447
v 0.353553 0.923880 0.146447
v 0.653282 0.707107 0.270598
v 0.653282 0.707107 0.270598
v 0.653282 0.707107 0.270598
v 0.653282 0.707107 0.270598
v 0.853553 0.382684 0.353554
v 0.853553 0.382684 0.353554
v 0.853553 0.382684 0.353554
v 0.853553 0.382684 0.353554
v 0.923879 -0.000000 0.382684
v 0.923879 -0.000000 0.382684
v 0.923879 -0.000000 0.382684
v 0.923879 -0.000000 0.382684
v 0.270598 0.923880 0.270598
v 0.270598 0.923880 0.270598
v 0.270598 0.923880 0.270598
v 0.270598 0.923880 0.270598
v 0.500000 0.707107 0.500000
v 0.500000 0.707107 0.500000
v 0.500000 0.707107 0.500000
v 0.500000 0.707107 0.500000
v 0.653281 0.382684 0.653282
v 0.653281 0.382684 0.653282
v 0.653281 0.382684 0.653282
v 0.653281 0.382684 0.653282
v 0.707107 -0.000000 0.707107
v 0.707107 -0.000000 0.707107
v 0.707107 -0.000000 0.707107
v 0.707107 -0.000000 0.707107
v 0.146447 0.923880 0.353554
v 0.146447 0.923880 0.353554
v 0.146447 0.923880 0.353554
v 0.146447 0.923880 0.353554
v 0.270598 0.707107 0.653282
v 0.270598 0.707107 0.653282
v 0.270598 0.707107 0.653282
v 0.270598 0.707107 0.653282
v 0.353553 0.382684 0.853554
v 0.353553 0.382684 0.853554
v 0.353553 0.382684 0.853554
v 0.353553 0.382684 0.853554
v 0.382683 -0.000000 0.923880
v 0.382683 -0.000000 0.923880
v 0.382683 -0.000000 0.923880
v 0.382683 -0.000000 0.923880
v -0.000000 1.000000 0.000000
v -0.000000 1.000000 0.000000
v -0.000000 1.000000 0.000000
v -0.000000 1.000000 0.000000
v -0.000000 1.000000 0.000000
v -0.000000 1.000000 0.000000
v -0.000000 1.000000 0.000000
v -0.000000 1.000000 0.000000
v -0.000000 1.000000 0.000000
v -0.000000 1.000000 0.000000
v -0.000000 1.000000 0.000000
v -0.000000 1.000000 0.000000
v -0.000000 1.000000 0.000000
v -0.000000 1.000000 0.000000
v -0.000000 1.000000 0.000000
v -0.000000 1.000000 0.000000
v -0.000000 0.923880 0.382684
v -0.000000 0.923880 0.382684
v -0.000000 0.923880 0.382684
v -0.000000 0.923880 0.382684
v -0.000000 0.707107 0.707107
v -0.000000 0.707107 0.707107
v -0.000000 0.707107 0.707107
v -0.000000 0.707107 0.707107
v -0.000000 0.382684 0.923880
v -0.000000 0.382684 0.923880
v -0.000000 0.382684 0.923880
v -0.000000 0.382684 0.923880
v -0.000000 -0.000000 1.000000
v -0.000000 -0.000000 1.000000
v -0.000000 -0.000000 1.000000
v -0.000000 -0.000000 1.000000
v -0.146447 0.923880 0.353554
v -0.146447 0.923880 0.353554
v -0.146447 0.923880 0.353554
v -0.146447 0.923880 0.353554
v -0.270598 0.707107 0.653282
v -0.270598 0.707107 0.653282
v -0.270598 0.707107 0.653282
v -0.270598 0.707107 0.653282
v -0.353554 0.382684 0.853554
v -0.353554 0.382684 0.853554
v -0.353554 0.382684 0.853554
v -0.353554 0.382684 0.853554
v -0.382684 -0.000000 0.923880
v -0.382684 -0.000000 0.923880
v -0.382684 -0.000000 0.923880
v -0.382684 -0.000000 0.923880
v -0.270598 0.923880 0.270598
v -0.270598 0.923880 0.270598
v -0.270598 0.923880 0.270598
v -0.270598 0.923880 0.270598
v -0.500000 0.707107 0.500000
v -0.500000 0.707107 0.500000
v -0.500000 0.707107 0.500000
v -0.500000 0.707107 0.500000
v -0.653282 0.382684 0.653282
v -0.653282 0.382684 0.653282
v -0.653282 0.382684 0.653282
v -0.653282 0.382684 0.653282
v -0.707107 -0.000000 0.707107
v -0.707107 -0.000000 0.707107
v -0.707107 -0.000000 0.707107
v -0.707107 -0.000000 0.707107
v -0.353553 0.923880 0.146447
v -0.353553 0.923880 0.146447
v -0.353553 0.923880 0.146447
v -0.353553 0.923880 0.146447
v -0.653282 0.707107 0.270598
v -0.653282 0.707107 0.270598
v -0.653282 0.707107 0.270598
v -0.653282 0.707107 0.270598
v -0.853553 0.382684 0.353553
v -0.853553 0.382684 0.353553
v -0.853553 0.382684 0.353553
v -0.853553 0.382684 0.353553
v -0.923880 -0.000000 0.382683
v -0.923880 -0.000000 0.382683
v -0.923880 -0.000000 0.382683
v -0.923880 -0.000000 0.382683
v -0.382683 0.923880 -0.000000
v -0.382683 0.923880 -0.000000
v -0.382683 0.923880 -0.000000
v -0.382683 0.923880 -0.000000
v -0.707107 0.707107 -0.000000
v -0.707107 0.707107 -0.000000
v -0.707107 0.707107 -0.000000
v -0.707107 0.707107 -0.000000
v -0.923879 0.382684 -0.000000
v -0.923879 0.382684 -0.000000
v -0.923879 0.382684 -0.000000
v -0.923879 0.382684 -0.000000
v -1.000000 -0.000000 -0.000000
v -1.000000 -0.000000 -0.000000
v -1.000000 -0.000000 -0.000000
v -1.000000 -0.000000 -0.000000
v -0.353553 0.923880 -0.146447
v -0.353553 0.923880 -0.146447
v -0.353553 0.923880 -0.146447
v -0.353553 0.923880 -0.146447
v -0.653281 0.707107 -0.270598
v -0.653281 0.707107 -0.270598
v -0.653281 0.707107 -0.270598
v -0.653281 0.707107 -0.270598
v -0.853553 0.382684 -0.353554
v -0.853553 0.382684 -0.353554
v -0.853553 0.382684 -0.353554
v -0.853553 0.382684 -0.353554
v -0.923879 -0.000000 -0.382684
v -0.923879 -0.000000 -0.382684
v -0.923879 -0.000000 -0.382684
v -0.923879 -0.000000 -0.382684
v -0.270598 0.923880 -0.270598
v -0.270598 0.923880 -0.270598
v -0.270598 0.923880 -0.270598
v -0.270598 0.923880 -0.270598
v -0.500000 0.707107 -0.500000
v -0.500000 0.707107 -0.500000
v -0.500000 0.707107 -0.500000
v -0.500000 0.707107 -0.500000
v -0.653281 0.382684 -0.653282
v -0.653281 0.382684 -0.653282
v -0.653281 0.382684 -0.653282
v -0.653281 0.382684 -0.653282
v -0.707106 -0.000000 -0.707107
v -0.707106 -0.000000 -0.707107
v -0.707106 -0.000000 -0.707107
v -0.707106 -0.000000 -0.707107
v -0.146446 0.923880 -0.353554
v -0.146446 0.923880 -0.353554
v -0.146446 0.923880 -0.353554
v -0.146446 0.923880 -0.353554
v -0.270598 0.707107 -0.653282
v -0.270598 0.707107 -0.653282
v -0.270598 0.707107 -0.653282
v -0.270598 0.707107 -0.653282
v -0.353553 0.382684 -0.853553
v -0.353553 0.382684 -0.853553
v -0.353553 0.382684 -0.853553
v -0.353553 0.382684 -0.853553
v -0.382683 -0.000000 -0.923880
v -0.382683 -0.000000 -0.923880
v -0.382683 -0.000000 -0.923880
v -0.382683 -0.000000 -0.923880
v 0.000000 0.923880 -0.382683
v 0.000000 0.923880 -0.382683
v 0.000000 0.923880 -0.382683
v 0.000000 0.923880 -0.382683
v 0.000001 -0.000000 -1.000000
v 0.000001 -0.000000 -1.000000
v 0.000001 -0.000000 -1.000000
v 0.000001 -0.000000 -1.000000
v 0.382683 -1.006240 -0.923880
v 0.382683 -1.006240 -0.923880
v 0.382683 -1.006240 -0.923880
v 0.707107 -1.511167 -0.707107
v 0.707107 -1.511167 -0.707107
v 0.923880 -1.006240 -0.382683
v 0.923880 -1.006240 -0.382683
v 0.923880 -1.006240 -0.382683
v 1.000000 -1.511167 0.000000
v 1.000000 -1.511167 0.000000
v 0.923879 -1.006240 0.382684
v 0.923879 -1.006240 0.382684
v 0.923879 -1.006240 0.382684
v 0.707107 -1.511167 0.707107
v 0.707107 -1.511167 0.707107
v 0.382683 -1.006240 0.923880
v 0.382683 -1.006240 0.923880
v 0.382683 -1.006240 0.923880
v -0.000000 -1.511167 1.000000
v -0.000000 -1.511167 1.000000
v -0.382684 -1.006240 0.923880
v -0.382684 -1.006240 0.923880
v -0.382684 -1.006240 0.923880
v -0.707107 -1.511167 0.707107
v -0.707107 -1.511167 0.707107
v -0.923880 -1.006240 0.382683
v -0.923880 -1.006240 0.382683
v -0.923880 -1.006240 0.382683
v -1.000000 -1.511167 -0.000000
v -1.000000 -1.511167 -0.000000
v -0.923879 -1.006240 -0.382684
v -0.923879 -1.006240 -0.382684
v -0.923879 -1.006240 -0.382684
v -0.707106 -1.511167 -0.707107
v -0.707106 -1.511167 -0.707107
v -0.382683 -1.006240 -0.923880
v -0.382683 -1.006240 -0.923880
v -0.382683 -1.006240 -0.923880
v 0.000001 -1.511167 -1.000000
v 0.000001 -1.511167 -1.000000
vn 0.0388 0.9800 -0.1949
vn 0.1104 0.9800 -0.1653
vn 0.1653 0.9800 -0.1104
vn 0.1949 0.9800 -0.0388
vn 0.1949 0.9800 0.0388
vn 0.1653 0.9800 0.1104
vn 0.1104 0.9800 0.1653
vn 0.0388 0.9800 0.1949
vn -0.0388 0.9800 0.1949
vn -0.1104 0.9800 0.1653
vn -0.1653 0.9800 0.1104
vn -0.1949 0.9800 0.0388
vn -0.1949 0.9800 -0.0388
vn -0.1653 0.9800 -0.1104
vn -0.1104 0.9800 -0.1653
vn -0.0388 0.9800 -0.1949
vn 0.1915 0.1915 -0.9626
vn 0.1098 0.8264 -0.5522
vn 0.1632 0.5481 -0.8203
vn 0.4647 0.5481 -0.6954
vn 0.5453 0.1915 -0.8161
vn 0.3128 0.8264 -0.4681
vn 0.8161 0.1915 -0.5453
vn 0.4681 0.8264 -0.3128
vn 0.6954 0.5481 -0.4647
vn 0.9626 0.1915 -0.1915
vn 0.5522 0.8264 -0.1098
vn 0.8203 0.5481 -0.1632
vn 0.8203 0.5481 0.1632
vn 0.9626 0.1915 0.1915
vn 0.5522 0.8264 0.1098
vn 0.6954 0.5481 0.4647
vn 0.8161 0.1915 0.5453
vn 0.4681 0.8264 0.3128
vn 0.5453 0.1915 0.8161
vn 0.3128 0.8264 0.4681
vn 0.4647 0.5481 0.6954
vn 0.1915 0.1915 0.9626
vn 0.1098 0.8264 0.5522
vn 0.1632 0.5481 0.8203
vn -0.1632 0.5481 0.8203
vn -0.1915 0.1915 0.9626
vn -0.1098 0.8264 0.5522
vn -0.4647 0.5481 0.6954
vn -0.5453 0.1915 0.8161
vn -0.3128 0.8264 0.4681
vn -0.8161 0.1915 0.5453
vn -0.4681 0.8264 0.3128
vn -0.6954 0.5481 0.4647
vn -0.5522 0.8264 0.1098
vn -0.8203 0.5481 0.1632
vn -0.9626 0.1915 0.1915
vn -0.8203 0.5481 -0.1632
vn -0.9626 0.1915 -0.1915
vn -0.5522 0.8264 -0.1098
vn -0.8161 0.1915 -0.5453
vn -0.4681 0.8264 -0.3128
vn -0.6954 0.5481 -0.4647
vn -0.5453 0.1915 -0.8161
vn -0.3128 0.8264 -0.4681
vn -0.4647 0.5481 -0.6954
vn -0.1632 0.5481 -0.8203
vn -0.1915 0.1915 -0.9626
vn -0.1098 0.8264 -0.5522
vn 0.9808 -0.0000 0.1951
vn -0.9808 -0.0000 0.1951
vn 0.9808 -0.0000 -0.1951
vn -0.1951 -0.0000 -0.9808
vn 0.5556 -0.0000 -0.8315
vn 0.8315 -0.0000 -0.5556
vn -0.5556 -0.0000 0.8315
vn -0.5556 -0.0000 -0.8315
vn -0.9808 -0.0000 -0.1951
vn -0.8315 -0.0000 -0.5556
vn -0.8315 -0.0000 0.5556
vn 0.5556 -0.0000 0.8315
vn -0.1951 -0.0000 0.9808
vn 0.1951 -0.0000 -0.9808
vn 0.8315 -0.0000 0.5556
vn 0.1951 -0.0000 0.9808
vn -0.0000 -1.0000 -0.0000
vt 0.789482 0.409115
vt 0.866677 0.394031
vt 0.789482 0.378946
vt 0.800928 0.351073
vt 0.822078 0.329740
vt 0.849711 0.318195
vt 0.879622 0.318195
vt 0.907256 0.329740
vt 0.928406 0.351073
vt 0.939852 0.378946
vt 0.939852 0.409115
vt 0.928406 0.436988
vt 0.907256 0.458321
vt 0.879622 0.469867
vt 0.849711 0.469867
vt 0.822078 0.458321
vt 0.800928 0.436988
vt 0.209553 0.694102
vt 0.206552 0.615650
vt 0.133717 0.615650
vt 0.130716 0.694102
vt 0.720017 0.421904
vt 0.720017 0.366158
vt 0.198008 0.546086
vt 0.142262 0.546086
vt 0.090759 0.543925
vt 0.066426 0.612827
vt 0.057881 0.691046
vt 0.741167 0.314655
vt 0.014923 0.607611
vt 0.002135 0.685400
vt 0.780247 0.275237
vt 0.051341 0.539933
vt 0.282388 0.228844
vt 0.273844 0.150625
vt 0.206552 0.153448
vt 0.209553 0.231900
vt 0.831307 0.253904
vt 0.249510 0.081724
vt 0.198008 0.083884
vt 0.142262 0.083884
vt 0.133717 0.153448
vt 0.130716 0.231900
vt 0.886575 0.253904
vt 0.090759 0.081724
vt 0.066426 0.150625
vt 0.057881 0.228844
vt 0.937635 0.275237
vt 0.014923 0.145409
vt 0.002135 0.223199
vt 0.976715 0.314655
vt 0.342404 0.930935
vt 0.380178 0.997865
vt 0.419508 0.993080
vt 0.393791 0.924682
vt 0.383673 0.846651
vt 0.461012 0.920505
vt 0.456432 0.842129
vt 0.997865 0.366158
vt 0.470956 0.989882
vt 0.526691 0.988759
vt 0.533833 0.919038
vt 0.535253 0.840541
vt 0.997865 0.421903
vt 0.578226 0.989882
vt 0.601167 0.920505
vt 0.608135 0.842129
vt 0.976715 0.473406
vt 0.652764 0.924682
vt 0.663983 0.846651
vt 0.937635 0.512824
vt 0.668253 0.930935
vt 0.706027 0.997865
vt 0.745357 0.993080
vt 0.719640 0.924682
vt 0.886575 0.534157
vt 0.796805 0.989882
vt 0.786861 0.920505
vt 0.709522 0.846651
vt 0.782281 0.842129
vt 0.852539 0.988759
vt 0.859681 0.919038
vt 0.861101 0.840541
vt 0.831307 0.534157
vt 0.927016 0.920505
vt 0.933984 0.842129
vt 0.780247 0.512824
vt 0.904075 0.989882
vt 0.338134 0.685400
vt 0.325346 0.607611
vt 0.273843 0.612827
vt 0.282388 0.691046
vt 0.741167 0.473406
vt 0.288928 0.539933
vt 0.249510 0.543925
vt 0.130716 0.434166
vt 0.209553 0.535663
vt 0.776163 0.538427
vt 0.705448 0.644425
vt 0.282388 0.431111
vt 0.209553 0.997865
vt 0.282388 0.893313
vt 0.057881 0.994809
vt 0.130716 0.896368
vt 0.002135 0.887667
vt 0.602017 0.538427
vt 0.531179 0.638316
vt 0.338134 0.989164
vt 0.857027 0.638316
vt 0.927865 0.538427
vt 0.659909 0.644425
vt 0.002135 0.425465
vt 0.057881 0.532608
vt 0.450314 0.538427
vt 0.379599 0.644425
vt 0.451754 0.534157
vt 0.342404 0.270164
vt 0.342404 0.424808
vt 0.606397 0.534157
vt 0.451754 0.160815
vt 0.715747 0.424808
vt 0.606397 0.160815
vt 0.715747 0.270164
s 0
usemtl Material.001
f 267/1/1 130/2/1 9/3/1
f 11/3/2 131/2/2 25/4/2
f 26/4/3 133/2/3 41/5/3
f 42/5/4 136/2/4 58/6/4
f 57/6/5 135/2/5 74/7/5
f 73/7/6 134/2/6 90/8/6
f 89/8/7 132/2/7 107/9/7
f 105/9/8 129/2/8 139/10/8
f 138/10/9 128/2/9 156/11/9
f 154/11/10 125/2/10 172/12/10
f 171/12/11 123/2/11 188/13/11
f 187/13/12 122/2/12 204/14/12
f 203/14/13 121/2/13 219/15/13
f 220/15/14 124/2/14 235/16/14
f 236/16/15 126/2/15 250/17/15
f 252/17/16 127/2/16 266/1/16
f 271/18/17 8/19/17 18/20/17
f 271/18/17 18/20/17 21/21/17
f 3/22/18 268/1/18 10/3/18
f 3/22/18 10/3/18 13/23/18
f 7/19/19 4/24/19 14/25/19
s 1
f 7/19/19 14/25/19 17/20/19
s 0
f 19/20/20 16/25/20 30/26/20
f 19/20/20 30/26/20 33/27/20
f 23/21/21 20/20/21 34/27/21
f 23/21/21 34/27/21 37/28/21
f 15/23/22 12/3/22 27/4/22
f 15/23/22 27/4/22 29/29/22
f 39/28/23 36/27/23 50/30/23
f 39/28/23 50/30/23 53/31/23
f 31/29/24 28/4/24 43/5/24
f 31/29/24 43/5/24 45/32/24
f 35/27/25 32/26/25 47/33/25
f 35/27/25 47/33/25 49/30/25
f 55/34/26 52/35/26 68/36/26
s 1
f 55/34/26 68/36/26 70/37/26
s 0
f 46/32/27 44/5/27 60/6/27
f 46/32/27 60/6/27 62/38/27
f 51/35/28 48/39/28 64/40/28
f 51/35/28 64/40/28 66/36/28
f 65/36/29 63/40/29 80/41/29
f 65/36/29 80/41/29 83/42/29
f 69/37/30 67/36/30 84/42/30
f 69/37/30 84/42/30 87/43/30
f 61/38/31 59/6/31 76/7/31
f 61/38/31 76/7/31 78/44/31
f 81/42/32 79/41/32 96/45/32
f 81/42/32 96/45/32 99/46/32
f 85/43/33 82/42/33 100/46/33
f 85/43/33 100/46/33 103/47/33
f 77/44/34 75/7/34 92/8/34
f 77/44/34 92/8/34 95/48/34
f 101/47/35 98/46/35 116/49/35
f 101/47/35 116/49/35 119/50/35
f 93/48/36 91/8/36 108/9/36
f 93/48/36 108/9/36 111/51/36
f 97/52/37 94/53/37 112/54/37
f 97/52/37 112/54/37 115/55/37
f 117/56/38 114/55/38 148/57/38
f 117/56/38 148/57/38 151/58/38
f 109/51/39 106/9/39 140/10/39
f 109/51/39 140/10/39 143/59/39
f 113/55/40 110/54/40 144/60/40
f 113/55/40 144/60/40 147/57/40
f 146/57/41 141/60/41 159/61/41
f 146/57/41 159/61/41 164/62/41
f 150/58/42 145/57/42 163/62/42
f 150/58/42 163/62/42 168/63/42
f 142/59/43 137/10/43 155/11/43
f 142/59/43 155/11/43 160/64/43
s 1
f 162/62/44 157/61/44 175/65/44
s 0
f 162/62/44 175/65/44 180/66/44
f 166/63/45 161/62/45 179/66/45
f 166/63/45 179/66/45 184/67/45
f 158/64/46 153/11/46 170/12/46
f 158/64/46 170/12/46 176/68/46
f 182/67/47 177/66/47 195/69/47
f 182/67/47 195/69/47 200/70/47
f 174/68/48 169/12/48 186/13/48
f 174/68/48 186/13/48 192/71/48
f 178/72/49 173/73/49 190/74/49
f 178/72/49 190/74/49 196/75/49
f 191/71/50 185/13/50 201/14/50
f 191/71/50 201/14/50 207/76/50
f 194/75/51 189/74/51 205/77/51
f 194/75/51 205/77/51 211/78/51
f 198/79/52 193/75/52 209/78/52
f 198/79/52 209/78/52 215/80/52
f 212/78/53 206/77/53 221/81/53
f 212/78/53 221/81/53 226/82/53
f 216/80/54 210/78/54 225/82/54
f 216/80/54 225/82/54 230/83/54
f 208/76/55 202/14/55 217/15/55
f 208/76/55 217/15/55 223/84/55
f 232/83/56 227/82/56 241/85/56
f 232/83/56 241/85/56 246/86/56
f 224/84/57 218/15/57 233/16/57
f 224/84/57 233/16/57 238/87/57
f 228/82/58 222/81/58 237/88/58
f 228/82/58 237/88/58 242/85/58
f 248/89/59 243/90/59 257/91/59
f 248/89/59 257/91/59 262/92/59
f 240/87/60 234/16/60 249/17/60
f 240/87/60 249/17/60 254/93/60
f 244/90/61 239/94/61 253/95/61
f 244/90/61 253/95/61 258/91/61
f 260/91/62 255/95/62 1/24/62
f 260/91/62 1/24/62 6/19/62
f 264/92/63 259/91/63 5/19/63
f 264/92/63 5/19/63 270/18/63
f 256/93/64 251/17/64 265/1/64
f 256/93/64 265/1/64 2/22/64
f 71/37/65 88/43/65 285/96/65
f 71/37/65 285/96/65 281/97/65
f 197/79/66 213/80/66 301/98/66
f 197/79/66 301/98/66 298/99/66
f 56/34/67 72/37/67 282/97/67
f 56/34/67 282/97/67 280/100/67
f 263/92/68 269/18/68 311/101/68
f 263/92/68 311/101/68 309/102/68
f 24/21/69 38/28/69 276/103/69
f 24/21/69 276/103/69 275/104/69
f 40/28/70 54/31/70 279/105/70
f 40/28/70 279/105/70 277/103/70
f 165/63/71 183/67/71 297/106/71
f 165/63/71 297/106/71 293/107/71
f 247/89/72 261/92/72 308/102/72
f 247/89/72 308/102/72 307/108/72
f 214/80/73 229/83/73 303/109/73
f 214/80/73 303/109/73 302/98/73
f 231/83/74 245/86/74 306/110/74
f 231/83/74 306/110/74 304/109/74
f 181/67/75 199/70/75 299/111/75
f 181/67/75 299/111/75 296/106/75
f 102/47/76 120/50/76 290/112/76
f 102/47/76 290/112/76 286/113/76
f 149/58/77 167/63/77 294/107/77
f 149/58/77 294/107/77 291/114/77
f 272/18/78 22/21/78 274/104/78
f 272/18/78 274/104/78 312/101/78
f 86/43/79 104/47/79 287/113/79
f 86/43/79 287/113/79 284/96/79
f 118/56/80 152/58/80 292/114/80
f 118/56/80 292/114/80 289/115/80
f 273/116/81 305/117/81 310/118/81
f 305/117/81 273/116/81 278/119/81
f 305/117/81 278/119/81 300/120/81
f 300/120/81 278/119/81 283/121/81
f 300/120/81 283/121/81 295/122/81
f 295/122/81 283/121/81 288/123/81
